<svg xmlns="http://www.w3.org/2000/svg" xmlns:xlink="http://www.w3.org/1999/xlink" version="1.1" width="256" height="256" viewBox="0 0 256 256" xml:space="preserve">
<g style="stroke: none; stroke-width: 0; stroke-dasharray: none; stroke-linecap: butt; stroke-linejoin: miter; stroke-miterlimit: 10; fill: none; fill-rule: nonzero; opacity: 1;" transform="translate(1.4065934065934016 1.4065934065934016) scale(2.81 2.81)">
	<path d="M 0.216 4.997 v 22.468 h 7.649 v 4.063 h 4.302 l 4.063 -4.063 h 6.215 l 8.365 -8.365 v -19.6 H 2.368 L 0.216 4.997 z M 4.997 2.368 h 22.946 v 15.297 l -4.78 4.78 h -7.649 l -4.063 4.063 v -4.063 H 4.997 V 2.368 z" style="stroke: none; stroke-width: 1; stroke-dasharray: none; stroke-linecap: butt; stroke-linejoin: miter; stroke-miterlimit: 10; fill: rgb(155,155,155); fill-rule: nonzero; opacity: 1;" transform=" matrix(2.81 0 0 2.81 1.4065934065934016 1.4065934065934016) " stroke-linecap="round"/>
	<rect x="20.29" y="7.87" rx="0" ry="0" width="2.87" height="8.36" style="stroke: none; stroke-width: 1; stroke-dasharray: none; stroke-linecap: butt; stroke-linejoin: miter; stroke-miterlimit: 10; fill: rgb(155,155,155); fill-rule: nonzero; opacity: 1;" transform=" matrix(2.81 0 0 2.81 1.4065934065934016 1.4065934065934016) "/>
	<rect x="12.64" y="7.87" rx="0" ry="0" width="2.87" height="8.36" style="stroke: none; stroke-width: 1; stroke-dasharray: none; stroke-linecap: butt; stroke-linejoin: miter; stroke-miterlimit: 10; fill: rgb(155,155,155); fill-rule: nonzero; opacity: 1;" transform=" matrix(2.81 0 0 2.81 1.4065934065934016 1.4065934065934016) "/>
</g>
</svg>